<?xml version="1.0" encoding="UTF-8" standalone="no"?><svg xmlns="http://www.w3.org/2000/svg" xmlns:xlink="http://www.w3.org/1999/xlink" contentScriptType="application/ecmascript" contentStyleType="text/css" height="247px" preserveAspectRatio="none" style="width:175px;height:247px;background:#FFFFFF;" version="1.1" viewBox="0 0 175 247" width="175px" zoomAndPan="magnify"><defs><filter height="300%" id="f1xo3jf5eexdn" width="300%" x="-1" y="-1"><feGaussianBlur result="blurOut" stdDeviation="2.0"/><feColorMatrix in="blurOut" result="blurOut2" type="matrix" values="0 0 0 0 0 0 0 0 0 0 0 0 0 0 0 0 0 0 .4 0"/><feOffset dx="4.0" dy="4.0" in="blurOut2" result="blurOut3"/><feBlend in="SourceGraphic" in2="blurOut3" mode="normal"/></filter></defs><g><!--MD5=[770389ab9df153645bc6ef28055eb2b5]
entity A--><rect fill="#FEFECE" filter="url(#f1xo3jf5eexdn)" height="36.4883" style="stroke:#A80036;stroke-width:1.5;" width="30" x="39" y="199"/><text fill="#000000" font-family="sans-serif" font-size="14" lengthAdjust="spacing" textLength="10" x="49" y="222.5352">A</text><!--MD5=[b2d39259b6aeabc16b394deeb0238426]
entity B--><rect fill="#FEFECE" filter="url(#f1xo3jf5eexdn)" height="36.4883" style="stroke:#A80036;stroke-width:1.5;" width="28" x="8" y="103"/><text fill="#000000" font-family="sans-serif" font-size="14" lengthAdjust="spacing" textLength="8" x="18" y="126.5352">B</text><!--MD5=[16fab723be418f7eaf2ea4bd895a8e51]
entity C--><rect fill="#FEFECE" filter="url(#f1xo3jf5eexdn)" height="36.4883" style="stroke:#A80036;stroke-width:1.5;" width="30" x="71" y="103"/><text fill="#000000" font-family="sans-serif" font-size="14" lengthAdjust="spacing" textLength="10" x="81" y="126.5352">C</text><!--MD5=[118f42602524ad482f02b27ef22fc383]
entity D--><rect fill="#FEFECE" filter="url(#f1xo3jf5eexdn)" height="36.4883" style="stroke:#A80036;stroke-width:1.5;" width="30" x="7" y="7"/><text fill="#000000" font-family="sans-serif" font-size="14" lengthAdjust="spacing" textLength="10" x="17" y="30.5352">D</text><!--MD5=[68f82070d0aec4ff4b64d9b1102926da]
entity E--><rect fill="#FEFECE" filter="url(#f1xo3jf5eexdn)" height="36.4883" style="stroke:#A80036;stroke-width:1.5;" width="28" x="72" y="7"/><text fill="#000000" font-family="sans-serif" font-size="14" lengthAdjust="spacing" textLength="8" x="82" y="30.5352">E</text><!--MD5=[22029b2902cbfefb11350e8ee6e306b3]
entity F--><rect fill="#FEFECE" filter="url(#f1xo3jf5eexdn)" height="36.4883" style="stroke:#A80036;stroke-width:1.5;" width="28" x="135" y="7"/><text fill="#000000" font-family="sans-serif" font-size="14" lengthAdjust="spacing" textLength="8" x="145" y="30.5352">F</text><!--MD5=[72912e6cd343fd0b615113a50578b9b8]
link E to C--><path d="M86,43.24 C86,58.48 86,80.81 86,97.46 " fill="none" id="E-to-C" style="stroke:#A80036;stroke-width:1.0;"/><polygon fill="#A80036" points="86,102.87,90,93.87,86,97.87,82,93.87,86,102.87" style="stroke:#A80036;stroke-width:1.0;"/><!--MD5=[63e03b6ea79d913a67ba6fcf5a4ae973]
link F to C--><path d="M137.44,43.24 C127.05,58.74 111.75,81.59 100.53,98.32 " fill="none" id="F-to-C" style="stroke:#A80036;stroke-width:1.0;"/><polygon fill="#A80036" points="97.48,102.87,105.813,97.6201,100.2634,98.7163,99.1672,93.1667,97.48,102.87" style="stroke:#A80036;stroke-width:1.0;"/><!--MD5=[1454d5cde7bc0c276b7bdc83fba84c24]
link C to A--><path d="M80.13,139.24 C74.9,154.61 67.21,177.2 61.53,193.89 " fill="none" id="C-to-A" style="stroke:#A80036;stroke-width:1.0;"/><polygon fill="#A80036" points="59.83,198.87,66.5232,191.645,61.4454,194.1381,58.9522,189.0603,59.83,198.87" style="stroke:#A80036;stroke-width:1.0;"/><!--MD5=[5ebc1f44a7c66b9e925829b6b9c43293]
link D to B--><path d="M22,43.24 C22,58.48 22,80.81 22,97.46 " fill="none" id="D-to-B" style="stroke:#A80036;stroke-width:1.0;"/><polygon fill="#A80036" points="22,102.87,26,93.87,22,97.87,18,93.87,22,102.87" style="stroke:#A80036;stroke-width:1.0;"/><!--MD5=[2c777c0c38089c390787dfc0786ecb92]
link B to A--><path d="M27.87,139.24 C33.1,154.61 40.79,177.2 46.47,193.89 " fill="none" id="B-to-A" style="stroke:#A80036;stroke-width:1.0;"/><polygon fill="#A80036" points="48.17,198.87,49.0478,189.0603,46.5546,194.1381,41.4768,191.645,48.17,198.87" style="stroke:#A80036;stroke-width:1.0;"/><!--MD5=[6f1b4fca46cfefae17b5bfbc8573426e]
@startuml
agent A
agent B
agent C
agent D
agent E
agent F

E - -> C
F - -> C
C - -> A
D - -> B
B - -> A
@enduml

PlantUML version 1.2021.9(Sun Jul 25 03:13:56 PDT 2021)
(GPL source distribution)
Java Runtime: OpenJDK Runtime Environment
JVM: OpenJDK 64-Bit Server VM
Default Encoding: UTF-8
Language: en
Country: US
--></g></svg>